<svg xmlns="http://www.w3.org/2000/svg" xmlns:xlink="http://www.w3.org/1999/xlink" viewBox="0 0 80.4 100.5" version="1.1" x="0px" y="0px"><g><path style="" d="M 37.199219 56.949219 C 39.199219 40.199219 39.199219 23.449219 37.199219 6.699219 L 43.199219 6.699219 C 41.199219 23.449219 41.199219 40.199219 43.199219 56.949219 " stroke="none" fill-rule="nonzero" fill="rgb(0%,0%,0%)" fill-opacity="1"/><path style="" d="M 26.449219 6.699219 C 24.449219 28.03125 55.949219 28.03125 53.949219 6.699219 L 59.949219 6.699219 C 57.949219 30.03125 22.449219 30.03125 20.449219 6.699219 " stroke="none" fill-rule="nonzero" fill="rgb(0%,0%,0%)" fill-opacity="1"/><path style="" d="M 6.699219 37.199219 C 29.03125 39.199219 51.367188 39.199219 73.699219 37.199219 L 73.699219 43.199219 C 51.367188 41.199219 29.03125 41.199219 6.699219 43.199219 " stroke="none" fill-rule="nonzero" fill="rgb(0%,0%,0%)" fill-opacity="1"/><path style="" d="M 26.449219 40.199219 C 24.449219 51.367188 24.449219 62.53125 26.449219 73.699219 L 20.449219 73.699219 C 22.449219 62.53125 22.449219 51.367188 20.449219 40.199219 " stroke="none" fill-rule="nonzero" fill="rgb(0%,0%,0%)" fill-opacity="1"/><path style="" d="M 59.949219 40.199219 C 57.949219 51.367188 57.949219 62.53125 59.949219 73.699219 L 53.949219 73.699219 C 55.949219 62.53125 55.949219 51.367188 53.949219 40.199219 " stroke="none" fill-rule="nonzero" fill="rgb(0%,0%,0%)" fill-opacity="1"/></g><text x="0" y="95.4" fill="#000000" font-size="5px" font-weight="bold" font-family="'Helvetica Neue', Helvetica, Arial-Unicode, Arial, Sans-serif">Created by Denis Moskowitz</text><text x="0" y="100.4" fill="#000000" font-size="5px" font-weight="bold" font-family="'Helvetica Neue', Helvetica, Arial-Unicode, Arial, Sans-serif">from the Noun Project</text></svg>