<svg xmlns="http://www.w3.org/2000/svg" xmlns:xlink="http://www.w3.org/1999/xlink" version="1.1" x="0px" y="0px" viewBox="0 0 96 120" enable-background="new 0 0 96 96" xml:space="preserve"><path d="M87.88,24.416V1.692c0-0.724-0.396-1.392-1.024-1.744c-0.631-0.356-1.412-0.34-2.023,0.04L67.428,10.68  c-5.648-2.068-12.5-3.24-18.976-3.24c-6.716,0-14.164,1.236-19.732,3.244L10.908-0.024c-0.62-0.368-1.392-0.384-2.016-0.024  c-0.632,0.356-1.016,1.02-1.016,1.74V24.42C4.2,29.752,2.34,36.436,2.34,44.4l0.616,13.552c0.04,0.828,0.584,1.556,1.372,1.808  l9.996,3.301L10.972,76.76c-0.168,0.688,0.04,1.416,0.556,1.912c0.512,0.5,1.252,0.68,1.932,0.484l11.46-3.268l3.484,18.783  c0.112,0.608,0.5,1.133,1.052,1.416c0.548,0.276,1.2,0.292,1.76,0.032l16.9-7.864L65,96.12c0.264,0.128,0.561,0.188,0.844,0.188  c0.313,0,0.62-0.076,0.912-0.217c0.553-0.283,0.932-0.804,1.053-1.412l3.455-18.068l11.457,2.945  c0.172,0.047,0.352,0.071,0.539,0.063c1.112-0.048,2.04-0.884,2.04-2c0-0.36-0.096-0.704-0.268-1l-3.337-13.396l9.793-3.381  c0.764-0.256,1.296-0.96,1.344-1.764l0.832-13.728C93.664,36.66,91.716,29.956,87.88,24.416z M68.296,31.88l-8.416,5.408v29.868  c0.017,0.132,0.084,0.252,0.084,0.392s-0.067,0.257-0.084,0.392v0.256c0,0.584-0.26,1.109-0.668,1.473  C57.42,72.22,52.492,73.42,47.8,73.42c-5.852,0-12.152-1.844-12.152-5.88c0-0.412,0.104-0.784,0.232-1.151V37.284l-8.416-5.408  c-0.928-0.596-1.196-1.836-0.6-2.764c0.596-0.928,1.832-1.2,2.764-0.6l9.336,6c0.572,0.368,0.916,1.004,0.916,1.68v26.785  c2.26-0.881,5.132-1.313,7.92-1.313c2.849,0,5.796,0.443,8.08,1.359V36.196c0-0.676,0.345-1.316,0.916-1.68l9.328-6  c0.933-0.6,2.172-0.328,2.765,0.6C69.492,30.044,69.225,31.28,68.296,31.88z"/><path d="M39.88,67.436v0.44c0.84,0.468,3.524,1.544,7.92,1.544c4.776,0,7.513-1.264,8.08-1.916V67.32  c-0.567-0.385-3.304-1.645-8.08-1.645C43.408,65.676,40.72,66.756,39.88,67.436L39.88,67.436z"/><text x="0" y="111" fill="#000000" font-size="5px" font-weight="bold" font-family="'Helvetica Neue', Helvetica, Arial-Unicode, Arial, Sans-serif">Created by iconsmind.com</text><text x="0" y="116" fill="#000000" font-size="5px" font-weight="bold" font-family="'Helvetica Neue', Helvetica, Arial-Unicode, Arial, Sans-serif">from the Noun Project</text></svg>